HIERARCHY
ROOT Hips
{
 OFFSET 0.000000 0.000000 0.000000
 CHANNELS 6 Xposition Yposition Zposition Yrotation Xrotation Zrotation
 JOINT Chest
 {
  OFFSET 0.000000 8.777825 -6.552462
  CHANNELS 3 Yrotation Xrotation Zrotation
  JOINT Chest2
  {
   OFFSET 0.000000 7.383841 -0.000881
   CHANNELS 3 Yrotation Xrotation Zrotation
   JOINT Chest3
   {
    OFFSET 0.000000 10.555540 0.000455
    CHANNELS 3 Yrotation Xrotation Zrotation
    JOINT Chest4
    {
     OFFSET 0.000000 10.885962 0.000501
     CHANNELS 3 Yrotation Xrotation Zrotation
     JOINT Neck
     {
      OFFSET 0.000000 17.548373 -0.000425
      CHANNELS 3 Yrotation Xrotation Zrotation
      JOINT Head
      {
       OFFSET 0.000000 9.021468 0.000000
       CHANNELS 3 Yrotation Xrotation Zrotation
       End Site
       {
        OFFSET 0.000000 13.152816 0.000000
       }
      }
     }
     JOINT RightCollar
     {
      OFFSET -2.801089 10.967333 -0.000212
      CHANNELS 3 Yrotation Xrotation Zrotation
      JOINT RightShoulder
      {
       OFFSET -15.865440 0.000000 0.000000
       CHANNELS 3 Yrotation Xrotation Zrotation
       JOINT RightElbow
       {
        OFFSET -26.521401 0.000000 0.000000
        CHANNELS 3 Yrotation Xrotation Zrotation
        JOINT RightWrist
        {
         OFFSET -23.907282 0.000000 -0.001304
         CHANNELS 3 Yrotation Xrotation Zrotation
         End Site
         {
          OFFSET -17.515647 0.653783 0.097580
         }
        }
       }
      }
     }
     JOINT LeftCollar
     {
      OFFSET 2.801089 10.967333 -0.000212
      CHANNELS 3 Yrotation Xrotation Zrotation
      JOINT LeftShoulder
      {
       OFFSET 15.865440 0.000000 0.000000
       CHANNELS 3 Yrotation Xrotation Zrotation
       JOINT LeftElbow
       {
        OFFSET 26.521401 0.000000 0.000000
        CHANNELS 3 Yrotation Xrotation Zrotation
        JOINT LeftWrist
        {
         OFFSET 23.907282 0.000000 -0.001304
         CHANNELS 3 Yrotation Xrotation Zrotation
         End Site
         {
          OFFSET 17.515647 0.653783 0.097580
         }
        }
       }
      }
     }
    }
   }
  }
 }
 JOINT RightHip
 {
  OFFSET -9.477029 -0.000305 0.000048
  CHANNELS 3 Yrotation Xrotation Zrotation
  JOINT RightKnee
  {
   OFFSET 0.000000 -47.500497 0.009605
   CHANNELS 3 Yrotation Xrotation Zrotation
   JOINT RightAnkle
   {
    OFFSET 0.000000 -41.890050 0.114765
    CHANNELS 3 Yrotation Xrotation Zrotation
    JOINT RightToe
    {
     OFFSET 0.000000 -8.242463 17.660639
     CHANNELS 3 Yrotation Xrotation Zrotation
     End Site
     {
      OFFSET 0.000000 -1.027352 5.005374
     }
    }
   }
  }
 }
 JOINT LeftHip
 {
  OFFSET 9.477029 -0.002494 0.000395
  CHANNELS 3 Yrotation Xrotation Zrotation
  JOINT LeftKnee
  {
   OFFSET 0.000000 -47.500497 0.009605
   CHANNELS 3 Yrotation Xrotation Zrotation
   JOINT LeftAnkle
   {
    OFFSET 0.000000 -41.890050 0.114765
    CHANNELS 3 Yrotation Xrotation Zrotation
    JOINT LeftToe
    {
     OFFSET 0.000000 -8.242463 17.660639
     CHANNELS 3 Yrotation Xrotation Zrotation
     End Site
     {
      OFFSET 0.000000 -1.027352 5.005374
     }
    }
   }
  }
 }
}
MOTION
Frames: 5
Frame Time: 0.004167
16.578723 96.871287 220.106533 0.412501 -3.063879 -3.457432 -0.681998 11.036259 0.924784 -0.425310 -5.867509 0.462797 -0.297980 3.645326 0.273297 -0.074823 9.350559 0.081451 -0.989323 7.294118 0.261228 -1.828459 13.549002 0.387090 -0.984670 -5.055336 7.043921 -0.225100 -0.538153 75.173132 4.593886 0.223230 2.820613 1.533258 -3.960328 4.997213 -1.400765 -8.075997 -8.483626 1.954678 -6.298493 -73.797069 -12.786244 -10.835330 -12.362148 -9.268376 -5.974887 1.856591 -11.914879 -33.302105 2.174339 -1.797682 53.334465 -1.495061 0.983215 -4.653406 7.781620 -0.000000 0.000000 0.000000 12.303721 -17.921530 -5.843729 6.803655 21.941633 1.604185 -5.909405 0.115334 2.943195 0.000000 0.000000 -0.000000
16.583577 96.924512 220.356302 0.560296 -3.061229 -3.511226 -0.733725 10.993317 0.918179 -0.449585 -5.927280 0.461392 -0.314835 3.624198 0.269295 -0.079693 9.363706 0.080443 -1.006048 7.308042 0.293523 -1.856485 13.575340 0.445727 -1.025662 -5.051556 7.076591 -0.130648 -0.616231 75.172758 4.646741 0.652376 2.824282 1.453934 -3.824790 4.880749 -1.392872 -8.053492 -8.439175 1.770726 -5.767485 -73.858739 -12.233370 -10.501479 -12.199686 -8.901108 -5.907829 1.888304 -12.079782 -33.392197 2.274849 -2.375712 52.868156 -2.018637 1.567199 -4.868143 7.752996 -0.000000 -0.000000 -0.000000 12.305577 -17.734305 -5.810804 6.723917 21.877737 1.582464 -5.964278 0.024895 3.043614 0.000000 0.000000 -0.000000
16.587391 96.975543 220.603971 0.705666 -3.062539 -3.569240 -0.781485 10.952486 0.915078 -0.472339 -5.983955 0.461511 -0.330628 3.604135 0.266539 -0.084211 9.376140 0.079783 -1.023887 7.320952 0.325594 -1.886615 13.599807 0.503838 -1.064197 -5.046538 7.109845 -0.048776 -0.697292 75.165926 4.699049 1.052094 2.828964 1.375985 -3.693417 4.773788 -1.384910 -8.031798 -8.398080 1.611169 -5.245485 -73.928358 -11.698218 -10.160313 -12.035840 -8.541514 -5.839071 1.892962 -12.196839 -33.474202 2.356863 -2.856812 52.403644 -2.438795 2.092457 -5.083873 7.735262 -0.000000 -0.000000 -0.000000 12.311287 -17.551220 -5.776890 6.624211 21.825789 1.564557 -6.003445 -0.069430 3.144829 -0.000000 0.000000 -0.000000
16.590076 97.025089 220.849382 0.846742 -3.068539 -3.632137 -0.824308 10.914453 0.916256 -0.493181 -6.036567 0.463504 -0.345092 3.585475 0.265316 -0.088294 9.387645 0.079548 -1.042733 7.332543 0.357206 -1.918671 13.621833 0.560996 -1.099614 -5.039954 7.143818 0.017568 -0.782733 75.151602 4.750259 1.410935 2.834680 1.301744 -3.569327 4.676937 -1.376842 -8.011036 -8.361228 1.483312 -4.734186 -74.006208 -11.182090 -9.811934 -11.870695 -8.196494 -5.768516 1.867357 -12.254090 -33.549548 2.417164 -3.211413 51.935244 -2.726186 2.531869 -5.286104 7.730709 0.000000 0.000000 -0.000000 12.319292 -17.371565 -5.740115 6.505692 21.784894 1.550679 -6.025737 -0.167291 3.244772 0.000000 -0.000000 -0.000000
16.591545 97.073858 221.092378 0.981659 -3.079958 -3.700581 -0.861220 10.879898 0.922493 -0.511719 -6.084156 0.467724 -0.357958 3.568553 0.265919 -0.091862 9.398005 0.079814 -1.062475 7.342508 0.388123 -1.952474 13.640843 0.616778 -1.131252 -5.031478 7.178648 0.065445 -0.873949 75.128747 4.799782 1.717452 2.841345 1.233589 -3.455639 4.590724 -1.368626 -7.991326 -8.329508 1.394454 -4.235256 -74.092426 -10.686361 -9.456415 -11.704239 -7.872981 -5.695999 1.808419 -12.239578 -33.619652 2.452546 -3.411340 51.457108 -2.852915 2.858324 -5.460275 7.741427 -0.000000 0.000000 -0.000000 12.328058 -17.194629 -5.698629 6.369513 21.754166 1.541022 -6.029981 -0.268333 3.341369 0.000000 -0.000000 -0.000000
